# xmcd CD database file
#
# Track frame offsets:
#	150
#	13584
#	33146
#	48268
#	60326
#	75158
#	91850
#	106718
#	120330
#	140039
#	153645
#	170358
#	191248
#	224189
#	245318
#	264835
#
# Disc length: 3864 seconds
#
# Revision: 0
# Processed by: cddbd v1.5.2PL0 Copyright (c) Steve Scherf et al.
# Submitted via: CDex 1.70beta2
#
DISCID=c60f1610
DTITLE=RON KORB - Modern First Magic Flute
DYEAR=2007
DGENRE=New Age
TTITLE0=Little Jade
TTITLE1=My Heart Will Go On
TTITLE2=The Sun Princess
TTITLE3=Lord Of The Rings
TTITLE4=Green Light
TTITLE5=The Moon Represents My Heart
TTITLE6=Discovery
TTITLE7=Jasmine
TTITLE8=Rogue's Fancy
TTITLE9=Sword Of Heaven
TTITLE10=Shi Zhong Ni Zui Hao(Roman Tam)
TTITLE11=Mysterious Man
TTITLE12=Misty Shore Of The West Lake
TTITLE13=Shadow Puppets
TTITLE14=Medicine Woman
TTITLE15=Dark Eyes
EXTD=YEAR: 2007
EXTT0=
EXTT1=
EXTT2=
EXTT3=
EXTT4=
EXTT5=
EXTT6=
EXTT7=
EXTT8=
EXTT9=
EXTT10=
EXTT11=
EXTT12=
EXTT13=
EXTT14=
EXTT15=
PLAYORDER=
